<?xml version="1.0" encoding="iso-8859-1"?>
<!-- Generator: Adobe Illustrator 19.0.0, SVG Export Plug-In . SVG Version: 6.00 Build 0)  -->
<svg version="1.1" id="Layer_1" xmlns="http://www.w3.org/2000/svg" xmlns:xlink="http://www.w3.org/1999/xlink" x="0px" y="0px"
	 viewBox="0 0 299.92 299.92" style="enable-background:new 0 0 299.92 299.92;" xml:space="preserve">
<g>
	<g>
		<path d="M293.4,0h-52.16c-3.606,0-6.52,2.914-6.52,6.52v49.456L55.49,234.72H6.52c-3.606,0-6.52,2.914-6.52,6.52v52.16
			c0,3.606,2.914,6.52,6.52,6.52h52.16c3.606,0,6.52-2.914,6.52-6.52v-49.95L243.934,65.2H293.4c3.606,0,6.52-2.914,6.52-6.52V6.52
			C299.92,2.914,297.006,0,293.4,0z M52.16,286.88H13.04v-39.12h39.12V286.88z M286.88,52.16h-39.12V13.04h39.12V52.16z"/>
	</g>
</g>
<g>
</g>
<g>
</g>
<g>
</g>
<g>
</g>
<g>
</g>
<g>
</g>
<g>
</g>
<g>
</g>
<g>
</g>
<g>
</g>
<g>
</g>
<g>
</g>
<g>
</g>
<g>
</g>
<g>
</g>
</svg>
