<?xml version="1.0" encoding="iso-8859-1"?>
<!-- Generator: Adobe Illustrator 19.0.0, SVG Export Plug-In . SVG Version: 6.00 Build 0)  -->
<svg version="1.1" id="Layer_1" xmlns="http://www.w3.org/2000/svg" xmlns:xlink="http://www.w3.org/1999/xlink" x="0px" y="0px"
	 viewBox="0 0 299.92 299.92" style="enable-background:new 0 0 299.92 299.92;" xml:space="preserve">
<g>
	<g>
		<path d="M293.4,65.2c3.606,0,6.52-2.914,6.52-6.52V6.52c0-3.606-2.914-6.52-6.52-6.52h-52.16c-3.606,0-6.52,2.914-6.52,6.52v19.56
			H65.2V6.52C65.2,2.914,62.286,0,58.68,0H6.52C2.914,0,0,2.914,0,6.52v52.16c0,3.606,2.914,6.52,6.52,6.52h19.56v169.52H6.52
			c-3.606,0-6.52,2.914-6.52,6.52v52.16c0,3.606,2.914,6.52,6.52,6.52h52.16c3.606,0,6.52-2.914,6.52-6.52v-19.56h169.52v19.56
			c0,3.606,2.914,6.52,6.52,6.52h52.16c3.606,0,6.52-2.914,6.52-6.52v-52.16c0-3.606-2.914-6.52-6.52-6.52h-19.56V65.2H293.4z
			 M247.76,13.04h39.12v39.12h-13.04H260.8h-13.04V39.12V26.08V13.04z M13.04,52.16V13.04h39.12v13.04v13.04v13.04H39.12H26.08
			H13.04z M52.16,286.88H13.04v-39.12h13.04h13.04h13.04v13.04v13.04V286.88z M286.88,247.76v39.12h-39.12v-13.04V260.8v-13.04
			h13.04h13.04H286.88z M260.8,234.72h-19.56c-3.606,0-6.52,2.914-6.52,6.52v19.56H65.2v-19.56c0-3.606-2.914-6.52-6.52-6.52H39.12
			V65.2h19.56c3.606,0,6.52-2.914,6.52-6.52V39.12h169.52v19.56c0,3.606,2.914,6.52,6.52,6.52h19.56V234.72z"/>
	</g>
</g>
<g>
</g>
<g>
</g>
<g>
</g>
<g>
</g>
<g>
</g>
<g>
</g>
<g>
</g>
<g>
</g>
<g>
</g>
<g>
</g>
<g>
</g>
<g>
</g>
<g>
</g>
<g>
</g>
<g>
</g>
</svg>
