<?xml version="1.0" encoding="utf-8" standalone="no"?>
<!DOCTYPE svg PUBLIC "-//W3C//DTD SVG 1.1//EN"
  "http://www.w3.org/Graphics/SVG/1.1/DTD/svg11.dtd">
<!-- Created with matplotlib (http://matplotlib.org/) -->
<svg height="345.6pt" version="1.1" viewBox="0 0 460.8 345.6" width="460.8pt" xmlns="http://www.w3.org/2000/svg" xmlns:xlink="http://www.w3.org/1999/xlink">
 <defs>
  <style type="text/css">
*{stroke-linecap:butt;stroke-linejoin:round;}
  </style>
 </defs>
 <g id="figure_1">
  <g id="patch_1">
   <path d="M 0 345.6 
L 460.8 345.6 
L 460.8 0 
L 0 0 
z
" style="fill:#ffffff;"/>
  </g>
  <g id="axes_1">
   <g id="patch_2">
    <path d="M 73.91 283.48 
L 413.595 283.48 
L 413.595 55.968 
L 73.91 55.968 
z
" style="fill:#ffffff;"/>
   </g>
   <g id="patch_3">
    <path clip-path="url(#p85f51e6971)" d="M 89.350227 283.48 
L 92.438273 283.48 
L 92.438273 175.140952 
L 89.350227 175.140952 
z
" style="fill:#ff0000;stroke:#000000;stroke-linejoin:miter;"/>
   </g>
   <g id="patch_4">
    <path clip-path="url(#p85f51e6971)" d="M 92.438273 283.48 
L 95.526318 283.48 
L 95.526318 283.48 
L 92.438273 283.48 
z
" style="fill:#ff0000;stroke:#000000;stroke-linejoin:miter;"/>
   </g>
   <g id="patch_5">
    <path clip-path="url(#p85f51e6971)" d="M 95.526318 283.48 
L 98.614364 283.48 
L 98.614364 283.48 
L 95.526318 283.48 
z
" style="fill:#ff0000;stroke:#000000;stroke-linejoin:miter;"/>
   </g>
   <g id="patch_6">
    <path clip-path="url(#p85f51e6971)" d="M 98.614364 283.48 
L 101.702409 283.48 
L 101.702409 175.140952 
L 98.614364 175.140952 
z
" style="fill:#ff0000;stroke:#000000;stroke-linejoin:miter;"/>
   </g>
   <g id="patch_7">
    <path clip-path="url(#p85f51e6971)" d="M 101.702409 283.48 
L 104.790455 283.48 
L 104.790455 283.48 
L 101.702409 283.48 
z
" style="fill:#ff0000;stroke:#000000;stroke-linejoin:miter;"/>
   </g>
   <g id="patch_8">
    <path clip-path="url(#p85f51e6971)" d="M 104.790455 283.48 
L 107.8785 283.48 
L 107.8785 283.48 
L 104.790455 283.48 
z
" style="fill:#ff0000;stroke:#000000;stroke-linejoin:miter;"/>
   </g>
   <g id="patch_9">
    <path clip-path="url(#p85f51e6971)" d="M 107.8785 283.48 
L 110.966545 283.48 
L 110.966545 283.48 
L 107.8785 283.48 
z
" style="fill:#ff0000;stroke:#000000;stroke-linejoin:miter;"/>
   </g>
   <g id="patch_10">
    <path clip-path="url(#p85f51e6971)" d="M 110.966545 283.48 
L 114.054591 283.48 
L 114.054591 283.48 
L 110.966545 283.48 
z
" style="fill:#ff0000;stroke:#000000;stroke-linejoin:miter;"/>
   </g>
   <g id="patch_11">
    <path clip-path="url(#p85f51e6971)" d="M 114.054591 283.48 
L 117.142636 283.48 
L 117.142636 283.48 
L 114.054591 283.48 
z
" style="fill:#ff0000;stroke:#000000;stroke-linejoin:miter;"/>
   </g>
   <g id="patch_12">
    <path clip-path="url(#p85f51e6971)" d="M 117.142636 283.48 
L 120.230682 283.48 
L 120.230682 283.48 
L 117.142636 283.48 
z
" style="fill:#ff0000;stroke:#000000;stroke-linejoin:miter;"/>
   </g>
   <g id="patch_13">
    <path clip-path="url(#p85f51e6971)" d="M 120.230682 283.48 
L 123.318727 283.48 
L 123.318727 283.48 
L 120.230682 283.48 
z
" style="fill:#ff0000;stroke:#000000;stroke-linejoin:miter;"/>
   </g>
   <g id="patch_14">
    <path clip-path="url(#p85f51e6971)" d="M 123.318727 283.48 
L 126.406773 283.48 
L 126.406773 283.48 
L 123.318727 283.48 
z
" style="fill:#ff0000;stroke:#000000;stroke-linejoin:miter;"/>
   </g>
   <g id="patch_15">
    <path clip-path="url(#p85f51e6971)" d="M 126.406773 283.48 
L 129.494818 283.48 
L 129.494818 283.48 
L 126.406773 283.48 
z
" style="fill:#ff0000;stroke:#000000;stroke-linejoin:miter;"/>
   </g>
   <g id="patch_16">
    <path clip-path="url(#p85f51e6971)" d="M 129.494818 283.48 
L 132.582864 283.48 
L 132.582864 283.48 
L 129.494818 283.48 
z
" style="fill:#ff0000;stroke:#000000;stroke-linejoin:miter;"/>
   </g>
   <g id="patch_17">
    <path clip-path="url(#p85f51e6971)" d="M 132.582864 283.48 
L 135.670909 283.48 
L 135.670909 283.48 
L 132.582864 283.48 
z
" style="fill:#ff0000;stroke:#000000;stroke-linejoin:miter;"/>
   </g>
   <g id="patch_18">
    <path clip-path="url(#p85f51e6971)" d="M 135.670909 283.48 
L 138.758955 283.48 
L 138.758955 283.48 
L 135.670909 283.48 
z
" style="fill:#ff0000;stroke:#000000;stroke-linejoin:miter;"/>
   </g>
   <g id="patch_19">
    <path clip-path="url(#p85f51e6971)" d="M 138.758955 283.48 
L 141.847 283.48 
L 141.847 283.48 
L 138.758955 283.48 
z
" style="fill:#ff0000;stroke:#000000;stroke-linejoin:miter;"/>
   </g>
   <g id="patch_20">
    <path clip-path="url(#p85f51e6971)" d="M 141.847 283.48 
L 144.935045 283.48 
L 144.935045 283.48 
L 141.847 283.48 
z
" style="fill:#ff0000;stroke:#000000;stroke-linejoin:miter;"/>
   </g>
   <g id="patch_21">
    <path clip-path="url(#p85f51e6971)" d="M 144.935045 283.48 
L 148.023091 283.48 
L 148.023091 283.48 
L 144.935045 283.48 
z
" style="fill:#ff0000;stroke:#000000;stroke-linejoin:miter;"/>
   </g>
   <g id="patch_22">
    <path clip-path="url(#p85f51e6971)" d="M 148.023091 283.48 
L 151.111136 283.48 
L 151.111136 283.48 
L 148.023091 283.48 
z
" style="fill:#ff0000;stroke:#000000;stroke-linejoin:miter;"/>
   </g>
   <g id="patch_23">
    <path clip-path="url(#p85f51e6971)" d="M 151.111136 283.48 
L 154.199182 283.48 
L 154.199182 283.48 
L 151.111136 283.48 
z
" style="fill:#ff0000;stroke:#000000;stroke-linejoin:miter;"/>
   </g>
   <g id="patch_24">
    <path clip-path="url(#p85f51e6971)" d="M 154.199182 283.48 
L 157.287227 283.48 
L 157.287227 283.48 
L 154.199182 283.48 
z
" style="fill:#ff0000;stroke:#000000;stroke-linejoin:miter;"/>
   </g>
   <g id="patch_25">
    <path clip-path="url(#p85f51e6971)" d="M 157.287227 283.48 
L 160.375273 283.48 
L 160.375273 66.801905 
L 157.287227 66.801905 
z
" style="fill:#ff0000;stroke:#000000;stroke-linejoin:miter;"/>
   </g>
   <g id="patch_26">
    <path clip-path="url(#p85f51e6971)" d="M 160.375273 283.48 
L 163.463318 283.48 
L 163.463318 175.140952 
L 160.375273 175.140952 
z
" style="fill:#ff0000;stroke:#000000;stroke-linejoin:miter;"/>
   </g>
   <g id="patch_27">
    <path clip-path="url(#p85f51e6971)" d="M 163.463318 283.48 
L 166.551364 283.48 
L 166.551364 175.140952 
L 163.463318 175.140952 
z
" style="fill:#ff0000;stroke:#000000;stroke-linejoin:miter;"/>
   </g>
   <g id="patch_28">
    <path clip-path="url(#p85f51e6971)" d="M 166.551364 283.48 
L 169.639409 283.48 
L 169.639409 175.140952 
L 166.551364 175.140952 
z
" style="fill:#ff0000;stroke:#000000;stroke-linejoin:miter;"/>
   </g>
   <g id="patch_29">
    <path clip-path="url(#p85f51e6971)" d="M 169.639409 283.48 
L 172.727455 283.48 
L 172.727455 283.48 
L 169.639409 283.48 
z
" style="fill:#ff0000;stroke:#000000;stroke-linejoin:miter;"/>
   </g>
   <g id="patch_30">
    <path clip-path="url(#p85f51e6971)" d="M 172.727455 283.48 
L 175.8155 283.48 
L 175.8155 175.140952 
L 172.727455 175.140952 
z
" style="fill:#ff0000;stroke:#000000;stroke-linejoin:miter;"/>
   </g>
   <g id="patch_31">
    <path clip-path="url(#p85f51e6971)" d="M 175.8155 283.48 
L 178.903545 283.48 
L 178.903545 283.48 
L 175.8155 283.48 
z
" style="fill:#ff0000;stroke:#000000;stroke-linejoin:miter;"/>
   </g>
   <g id="patch_32">
    <path clip-path="url(#p85f51e6971)" d="M 178.903545 283.48 
L 181.991591 283.48 
L 181.991591 283.48 
L 178.903545 283.48 
z
" style="fill:#ff0000;stroke:#000000;stroke-linejoin:miter;"/>
   </g>
   <g id="patch_33">
    <path clip-path="url(#p85f51e6971)" d="M 181.991591 283.48 
L 185.079636 283.48 
L 185.079636 283.48 
L 181.991591 283.48 
z
" style="fill:#ff0000;stroke:#000000;stroke-linejoin:miter;"/>
   </g>
   <g id="patch_34">
    <path clip-path="url(#p85f51e6971)" d="M 185.079636 283.48 
L 188.167682 283.48 
L 188.167682 66.801905 
L 185.079636 66.801905 
z
" style="fill:#ff0000;stroke:#000000;stroke-linejoin:miter;"/>
   </g>
   <g id="patch_35">
    <path clip-path="url(#p85f51e6971)" d="M 188.167682 283.48 
L 191.255727 283.48 
L 191.255727 175.140952 
L 188.167682 175.140952 
z
" style="fill:#ff0000;stroke:#000000;stroke-linejoin:miter;"/>
   </g>
   <g id="patch_36">
    <path clip-path="url(#p85f51e6971)" d="M 191.255727 283.48 
L 194.343773 283.48 
L 194.343773 283.48 
L 191.255727 283.48 
z
" style="fill:#ff0000;stroke:#000000;stroke-linejoin:miter;"/>
   </g>
   <g id="patch_37">
    <path clip-path="url(#p85f51e6971)" d="M 194.343773 283.48 
L 197.431818 283.48 
L 197.431818 66.801905 
L 194.343773 66.801905 
z
" style="fill:#ff0000;stroke:#000000;stroke-linejoin:miter;"/>
   </g>
   <g id="patch_38">
    <path clip-path="url(#p85f51e6971)" d="M 197.431818 283.48 
L 200.519864 283.48 
L 200.519864 283.48 
L 197.431818 283.48 
z
" style="fill:#ff0000;stroke:#000000;stroke-linejoin:miter;"/>
   </g>
   <g id="patch_39">
    <path clip-path="url(#p85f51e6971)" d="M 200.519864 283.48 
L 203.607909 283.48 
L 203.607909 175.140952 
L 200.519864 175.140952 
z
" style="fill:#ff0000;stroke:#000000;stroke-linejoin:miter;"/>
   </g>
   <g id="patch_40">
    <path clip-path="url(#p85f51e6971)" d="M 203.607909 283.48 
L 206.695955 283.48 
L 206.695955 283.48 
L 203.607909 283.48 
z
" style="fill:#ff0000;stroke:#000000;stroke-linejoin:miter;"/>
   </g>
   <g id="patch_41">
    <path clip-path="url(#p85f51e6971)" d="M 206.695955 283.48 
L 209.784 283.48 
L 209.784 283.48 
L 206.695955 283.48 
z
" style="fill:#ff0000;stroke:#000000;stroke-linejoin:miter;"/>
   </g>
   <g id="patch_42">
    <path clip-path="url(#p85f51e6971)" d="M 209.784 283.48 
L 212.872045 283.48 
L 212.872045 175.140952 
L 209.784 175.140952 
z
" style="fill:#ff0000;stroke:#000000;stroke-linejoin:miter;"/>
   </g>
   <g id="patch_43">
    <path clip-path="url(#p85f51e6971)" d="M 212.872045 283.48 
L 215.960091 283.48 
L 215.960091 283.48 
L 212.872045 283.48 
z
" style="fill:#ff0000;stroke:#000000;stroke-linejoin:miter;"/>
   </g>
   <g id="patch_44">
    <path clip-path="url(#p85f51e6971)" d="M 215.960091 283.48 
L 219.048136 283.48 
L 219.048136 66.801905 
L 215.960091 66.801905 
z
" style="fill:#ff0000;stroke:#000000;stroke-linejoin:miter;"/>
   </g>
   <g id="patch_45">
    <path clip-path="url(#p85f51e6971)" d="M 219.048136 283.48 
L 222.136182 283.48 
L 222.136182 283.48 
L 219.048136 283.48 
z
" style="fill:#ff0000;stroke:#000000;stroke-linejoin:miter;"/>
   </g>
   <g id="patch_46">
    <path clip-path="url(#p85f51e6971)" d="M 222.136182 283.48 
L 225.224227 283.48 
L 225.224227 283.48 
L 222.136182 283.48 
z
" style="fill:#ff0000;stroke:#000000;stroke-linejoin:miter;"/>
   </g>
   <g id="patch_47">
    <path clip-path="url(#p85f51e6971)" d="M 225.224227 283.48 
L 228.312273 283.48 
L 228.312273 283.48 
L 225.224227 283.48 
z
" style="fill:#ff0000;stroke:#000000;stroke-linejoin:miter;"/>
   </g>
   <g id="patch_48">
    <path clip-path="url(#p85f51e6971)" d="M 228.312273 283.48 
L 231.400318 283.48 
L 231.400318 175.140952 
L 228.312273 175.140952 
z
" style="fill:#ff0000;stroke:#000000;stroke-linejoin:miter;"/>
   </g>
   <g id="patch_49">
    <path clip-path="url(#p85f51e6971)" d="M 231.400318 283.48 
L 234.488364 283.48 
L 234.488364 175.140952 
L 231.400318 175.140952 
z
" style="fill:#ff0000;stroke:#000000;stroke-linejoin:miter;"/>
   </g>
   <g id="patch_50">
    <path clip-path="url(#p85f51e6971)" d="M 234.488364 283.48 
L 237.576409 283.48 
L 237.576409 66.801905 
L 234.488364 66.801905 
z
" style="fill:#ff0000;stroke:#000000;stroke-linejoin:miter;"/>
   </g>
   <g id="patch_51">
    <path clip-path="url(#p85f51e6971)" d="M 237.576409 283.48 
L 240.664455 283.48 
L 240.664455 66.801905 
L 237.576409 66.801905 
z
" style="fill:#ff0000;stroke:#000000;stroke-linejoin:miter;"/>
   </g>
   <g id="patch_52">
    <path clip-path="url(#p85f51e6971)" d="M 240.664455 283.48 
L 243.7525 283.48 
L 243.7525 283.48 
L 240.664455 283.48 
z
" style="fill:#ff0000;stroke:#000000;stroke-linejoin:miter;"/>
   </g>
   <g id="patch_53">
    <path clip-path="url(#p85f51e6971)" d="M 243.7525 283.48 
L 246.840545 283.48 
L 246.840545 175.140952 
L 243.7525 175.140952 
z
" style="fill:#ff0000;stroke:#000000;stroke-linejoin:miter;"/>
   </g>
   <g id="patch_54">
    <path clip-path="url(#p85f51e6971)" d="M 246.840545 283.48 
L 249.928591 283.48 
L 249.928591 283.48 
L 246.840545 283.48 
z
" style="fill:#ff0000;stroke:#000000;stroke-linejoin:miter;"/>
   </g>
   <g id="patch_55">
    <path clip-path="url(#p85f51e6971)" d="M 249.928591 283.48 
L 253.016636 283.48 
L 253.016636 283.48 
L 249.928591 283.48 
z
" style="fill:#ff0000;stroke:#000000;stroke-linejoin:miter;"/>
   </g>
   <g id="patch_56">
    <path clip-path="url(#p85f51e6971)" d="M 253.016636 283.48 
L 256.104682 283.48 
L 256.104682 283.48 
L 253.016636 283.48 
z
" style="fill:#ff0000;stroke:#000000;stroke-linejoin:miter;"/>
   </g>
   <g id="patch_57">
    <path clip-path="url(#p85f51e6971)" d="M 256.104682 283.48 
L 259.192727 283.48 
L 259.192727 175.140952 
L 256.104682 175.140952 
z
" style="fill:#ff0000;stroke:#000000;stroke-linejoin:miter;"/>
   </g>
   <g id="patch_58">
    <path clip-path="url(#p85f51e6971)" d="M 259.192727 283.48 
L 262.280773 283.48 
L 262.280773 175.140952 
L 259.192727 175.140952 
z
" style="fill:#ff0000;stroke:#000000;stroke-linejoin:miter;"/>
   </g>
   <g id="patch_59">
    <path clip-path="url(#p85f51e6971)" d="M 262.280773 283.48 
L 265.368818 283.48 
L 265.368818 283.48 
L 262.280773 283.48 
z
" style="fill:#ff0000;stroke:#000000;stroke-linejoin:miter;"/>
   </g>
   <g id="patch_60">
    <path clip-path="url(#p85f51e6971)" d="M 265.368818 283.48 
L 268.456864 283.48 
L 268.456864 175.140952 
L 265.368818 175.140952 
z
" style="fill:#ff0000;stroke:#000000;stroke-linejoin:miter;"/>
   </g>
   <g id="patch_61">
    <path clip-path="url(#p85f51e6971)" d="M 268.456864 283.48 
L 271.544909 283.48 
L 271.544909 283.48 
L 268.456864 283.48 
z
" style="fill:#ff0000;stroke:#000000;stroke-linejoin:miter;"/>
   </g>
   <g id="patch_62">
    <path clip-path="url(#p85f51e6971)" d="M 271.544909 283.48 
L 274.632955 283.48 
L 274.632955 66.801905 
L 271.544909 66.801905 
z
" style="fill:#ff0000;stroke:#000000;stroke-linejoin:miter;"/>
   </g>
   <g id="patch_63">
    <path clip-path="url(#p85f51e6971)" d="M 274.632955 283.48 
L 277.721 283.48 
L 277.721 283.48 
L 274.632955 283.48 
z
" style="fill:#ff0000;stroke:#000000;stroke-linejoin:miter;"/>
   </g>
   <g id="patch_64">
    <path clip-path="url(#p85f51e6971)" d="M 277.721 283.48 
L 280.809045 283.48 
L 280.809045 283.48 
L 277.721 283.48 
z
" style="fill:#ff0000;stroke:#000000;stroke-linejoin:miter;"/>
   </g>
   <g id="patch_65">
    <path clip-path="url(#p85f51e6971)" d="M 280.809045 283.48 
L 283.897091 283.48 
L 283.897091 283.48 
L 280.809045 283.48 
z
" style="fill:#ff0000;stroke:#000000;stroke-linejoin:miter;"/>
   </g>
   <g id="patch_66">
    <path clip-path="url(#p85f51e6971)" d="M 283.897091 283.48 
L 286.985136 283.48 
L 286.985136 175.140952 
L 283.897091 175.140952 
z
" style="fill:#ff0000;stroke:#000000;stroke-linejoin:miter;"/>
   </g>
   <g id="patch_67">
    <path clip-path="url(#p85f51e6971)" d="M 286.985136 283.48 
L 290.073182 283.48 
L 290.073182 175.140952 
L 286.985136 175.140952 
z
" style="fill:#ff0000;stroke:#000000;stroke-linejoin:miter;"/>
   </g>
   <g id="patch_68">
    <path clip-path="url(#p85f51e6971)" d="M 290.073182 283.48 
L 293.161227 283.48 
L 293.161227 175.140952 
L 290.073182 175.140952 
z
" style="fill:#ff0000;stroke:#000000;stroke-linejoin:miter;"/>
   </g>
   <g id="patch_69">
    <path clip-path="url(#p85f51e6971)" d="M 293.161227 283.48 
L 296.249273 283.48 
L 296.249273 283.48 
L 293.161227 283.48 
z
" style="fill:#ff0000;stroke:#000000;stroke-linejoin:miter;"/>
   </g>
   <g id="patch_70">
    <path clip-path="url(#p85f51e6971)" d="M 296.249273 283.48 
L 299.337318 283.48 
L 299.337318 175.140952 
L 296.249273 175.140952 
z
" style="fill:#ff0000;stroke:#000000;stroke-linejoin:miter;"/>
   </g>
   <g id="patch_71">
    <path clip-path="url(#p85f51e6971)" d="M 299.337318 283.48 
L 302.425364 283.48 
L 302.425364 283.48 
L 299.337318 283.48 
z
" style="fill:#ff0000;stroke:#000000;stroke-linejoin:miter;"/>
   </g>
   <g id="patch_72">
    <path clip-path="url(#p85f51e6971)" d="M 302.425364 283.48 
L 305.513409 283.48 
L 305.513409 283.48 
L 302.425364 283.48 
z
" style="fill:#ff0000;stroke:#000000;stroke-linejoin:miter;"/>
   </g>
   <g id="patch_73">
    <path clip-path="url(#p85f51e6971)" d="M 305.513409 283.48 
L 308.601455 283.48 
L 308.601455 283.48 
L 305.513409 283.48 
z
" style="fill:#ff0000;stroke:#000000;stroke-linejoin:miter;"/>
   </g>
   <g id="patch_74">
    <path clip-path="url(#p85f51e6971)" d="M 308.601455 283.48 
L 311.6895 283.48 
L 311.6895 283.48 
L 308.601455 283.48 
z
" style="fill:#ff0000;stroke:#000000;stroke-linejoin:miter;"/>
   </g>
   <g id="patch_75">
    <path clip-path="url(#p85f51e6971)" d="M 311.6895 283.48 
L 314.777545 283.48 
L 314.777545 175.140952 
L 311.6895 175.140952 
z
" style="fill:#ff0000;stroke:#000000;stroke-linejoin:miter;"/>
   </g>
   <g id="patch_76">
    <path clip-path="url(#p85f51e6971)" d="M 314.777545 283.48 
L 317.865591 283.48 
L 317.865591 283.48 
L 314.777545 283.48 
z
" style="fill:#ff0000;stroke:#000000;stroke-linejoin:miter;"/>
   </g>
   <g id="patch_77">
    <path clip-path="url(#p85f51e6971)" d="M 317.865591 283.48 
L 320.953636 283.48 
L 320.953636 175.140952 
L 317.865591 175.140952 
z
" style="fill:#ff0000;stroke:#000000;stroke-linejoin:miter;"/>
   </g>
   <g id="patch_78">
    <path clip-path="url(#p85f51e6971)" d="M 320.953636 283.48 
L 324.041682 283.48 
L 324.041682 283.48 
L 320.953636 283.48 
z
" style="fill:#ff0000;stroke:#000000;stroke-linejoin:miter;"/>
   </g>
   <g id="patch_79">
    <path clip-path="url(#p85f51e6971)" d="M 324.041682 283.48 
L 327.129727 283.48 
L 327.129727 283.48 
L 324.041682 283.48 
z
" style="fill:#ff0000;stroke:#000000;stroke-linejoin:miter;"/>
   </g>
   <g id="patch_80">
    <path clip-path="url(#p85f51e6971)" d="M 327.129727 283.48 
L 330.217773 283.48 
L 330.217773 283.48 
L 327.129727 283.48 
z
" style="fill:#ff0000;stroke:#000000;stroke-linejoin:miter;"/>
   </g>
   <g id="patch_81">
    <path clip-path="url(#p85f51e6971)" d="M 330.217773 283.48 
L 333.305818 283.48 
L 333.305818 175.140952 
L 330.217773 175.140952 
z
" style="fill:#ff0000;stroke:#000000;stroke-linejoin:miter;"/>
   </g>
   <g id="patch_82">
    <path clip-path="url(#p85f51e6971)" d="M 333.305818 283.48 
L 336.393864 283.48 
L 336.393864 283.48 
L 333.305818 283.48 
z
" style="fill:#ff0000;stroke:#000000;stroke-linejoin:miter;"/>
   </g>
   <g id="patch_83">
    <path clip-path="url(#p85f51e6971)" d="M 336.393864 283.48 
L 339.481909 283.48 
L 339.481909 283.48 
L 336.393864 283.48 
z
" style="fill:#ff0000;stroke:#000000;stroke-linejoin:miter;"/>
   </g>
   <g id="patch_84">
    <path clip-path="url(#p85f51e6971)" d="M 339.481909 283.48 
L 342.569955 283.48 
L 342.569955 283.48 
L 339.481909 283.48 
z
" style="fill:#ff0000;stroke:#000000;stroke-linejoin:miter;"/>
   </g>
   <g id="patch_85">
    <path clip-path="url(#p85f51e6971)" d="M 342.569955 283.48 
L 345.658 283.48 
L 345.658 66.801905 
L 342.569955 66.801905 
z
" style="fill:#ff0000;stroke:#000000;stroke-linejoin:miter;"/>
   </g>
   <g id="patch_86">
    <path clip-path="url(#p85f51e6971)" d="M 345.658 283.48 
L 348.746045 283.48 
L 348.746045 283.48 
L 345.658 283.48 
z
" style="fill:#ff0000;stroke:#000000;stroke-linejoin:miter;"/>
   </g>
   <g id="patch_87">
    <path clip-path="url(#p85f51e6971)" d="M 348.746045 283.48 
L 351.834091 283.48 
L 351.834091 283.48 
L 348.746045 283.48 
z
" style="fill:#ff0000;stroke:#000000;stroke-linejoin:miter;"/>
   </g>
   <g id="patch_88">
    <path clip-path="url(#p85f51e6971)" d="M 351.834091 283.48 
L 354.922136 283.48 
L 354.922136 283.48 
L 351.834091 283.48 
z
" style="fill:#ff0000;stroke:#000000;stroke-linejoin:miter;"/>
   </g>
   <g id="patch_89">
    <path clip-path="url(#p85f51e6971)" d="M 354.922136 283.48 
L 358.010182 283.48 
L 358.010182 283.48 
L 354.922136 283.48 
z
" style="fill:#ff0000;stroke:#000000;stroke-linejoin:miter;"/>
   </g>
   <g id="patch_90">
    <path clip-path="url(#p85f51e6971)" d="M 358.010182 283.48 
L 361.098227 283.48 
L 361.098227 283.48 
L 358.010182 283.48 
z
" style="fill:#ff0000;stroke:#000000;stroke-linejoin:miter;"/>
   </g>
   <g id="patch_91">
    <path clip-path="url(#p85f51e6971)" d="M 361.098227 283.48 
L 364.186273 283.48 
L 364.186273 283.48 
L 361.098227 283.48 
z
" style="fill:#ff0000;stroke:#000000;stroke-linejoin:miter;"/>
   </g>
   <g id="patch_92">
    <path clip-path="url(#p85f51e6971)" d="M 364.186273 283.48 
L 367.274318 283.48 
L 367.274318 175.140952 
L 364.186273 175.140952 
z
" style="fill:#ff0000;stroke:#000000;stroke-linejoin:miter;"/>
   </g>
   <g id="patch_93">
    <path clip-path="url(#p85f51e6971)" d="M 367.274318 283.48 
L 370.362364 283.48 
L 370.362364 283.48 
L 367.274318 283.48 
z
" style="fill:#ff0000;stroke:#000000;stroke-linejoin:miter;"/>
   </g>
   <g id="patch_94">
    <path clip-path="url(#p85f51e6971)" d="M 370.362364 283.48 
L 373.450409 283.48 
L 373.450409 283.48 
L 370.362364 283.48 
z
" style="fill:#ff0000;stroke:#000000;stroke-linejoin:miter;"/>
   </g>
   <g id="patch_95">
    <path clip-path="url(#p85f51e6971)" d="M 373.450409 283.48 
L 376.538455 283.48 
L 376.538455 283.48 
L 373.450409 283.48 
z
" style="fill:#ff0000;stroke:#000000;stroke-linejoin:miter;"/>
   </g>
   <g id="patch_96">
    <path clip-path="url(#p85f51e6971)" d="M 376.538455 283.48 
L 379.6265 283.48 
L 379.6265 283.48 
L 376.538455 283.48 
z
" style="fill:#ff0000;stroke:#000000;stroke-linejoin:miter;"/>
   </g>
   <g id="patch_97">
    <path clip-path="url(#p85f51e6971)" d="M 379.6265 283.48 
L 382.714545 283.48 
L 382.714545 283.48 
L 379.6265 283.48 
z
" style="fill:#ff0000;stroke:#000000;stroke-linejoin:miter;"/>
   </g>
   <g id="patch_98">
    <path clip-path="url(#p85f51e6971)" d="M 382.714545 283.48 
L 385.802591 283.48 
L 385.802591 283.48 
L 382.714545 283.48 
z
" style="fill:#ff0000;stroke:#000000;stroke-linejoin:miter;"/>
   </g>
   <g id="patch_99">
    <path clip-path="url(#p85f51e6971)" d="M 385.802591 283.48 
L 388.890636 283.48 
L 388.890636 283.48 
L 385.802591 283.48 
z
" style="fill:#ff0000;stroke:#000000;stroke-linejoin:miter;"/>
   </g>
   <g id="patch_100">
    <path clip-path="url(#p85f51e6971)" d="M 388.890636 283.48 
L 391.978682 283.48 
L 391.978682 283.48 
L 388.890636 283.48 
z
" style="fill:#ff0000;stroke:#000000;stroke-linejoin:miter;"/>
   </g>
   <g id="patch_101">
    <path clip-path="url(#p85f51e6971)" d="M 391.978682 283.48 
L 395.066727 283.48 
L 395.066727 283.48 
L 391.978682 283.48 
z
" style="fill:#ff0000;stroke:#000000;stroke-linejoin:miter;"/>
   </g>
   <g id="patch_102">
    <path clip-path="url(#p85f51e6971)" d="M 395.066727 283.48 
L 398.154773 283.48 
L 398.154773 175.140952 
L 395.066727 175.140952 
z
" style="fill:#ff0000;stroke:#000000;stroke-linejoin:miter;"/>
   </g>
   <g id="matplotlib.axis_1">
    <g id="xtick_1">
     <g id="line2d_1">
      <defs>
       <path d="M 0 0 
L 0 3.5 
" id="m3dd364e447" style="stroke:#000000;stroke-width:0.8;"/>
      </defs>
      <g>
       <use style="stroke:#000000;stroke-width:0.8;" x="170.204705" xlink:href="#m3dd364e447" y="283.48"/>
      </g>
     </g>
     <g id="text_1">
      <!-- 10 -->
      <defs>
       <path d="M 12.40625 8.296875 
L 28.515625 8.296875 
L 28.515625 63.921875 
L 10.984375 60.40625 
L 10.984375 69.390625 
L 28.421875 72.90625 
L 38.28125 72.90625 
L 38.28125 8.296875 
L 54.390625 8.296875 
L 54.390625 0 
L 12.40625 0 
z
" id="DejaVuSans-31"/>
       <path d="M 31.78125 66.40625 
Q 24.171875 66.40625 20.328125 58.90625 
Q 16.5 51.421875 16.5 36.375 
Q 16.5 21.390625 20.328125 13.890625 
Q 24.171875 6.390625 31.78125 6.390625 
Q 39.453125 6.390625 43.28125 13.890625 
Q 47.125 21.390625 47.125 36.375 
Q 47.125 51.421875 43.28125 58.90625 
Q 39.453125 66.40625 31.78125 66.40625 
z
M 31.78125 74.21875 
Q 44.046875 74.21875 50.515625 64.515625 
Q 56.984375 54.828125 56.984375 36.375 
Q 56.984375 17.96875 50.515625 8.265625 
Q 44.046875 -1.421875 31.78125 -1.421875 
Q 19.53125 -1.421875 13.0625 8.265625 
Q 6.59375 17.96875 6.59375 36.375 
Q 6.59375 54.828125 13.0625 64.515625 
Q 19.53125 74.21875 31.78125 74.21875 
z
" id="DejaVuSans-30"/>
      </defs>
      <g transform="translate(157.479705 305.676875)scale(0.2 -0.2)">
       <use xlink:href="#DejaVuSans-31"/>
       <use x="63.623047" xlink:href="#DejaVuSans-30"/>
      </g>
     </g>
    </g>
    <g id="xtick_2">
     <g id="line2d_2">
      <g>
       <use style="stroke:#000000;stroke-width:0.8;" x="269.887237" xlink:href="#m3dd364e447" y="283.48"/>
      </g>
     </g>
     <g id="text_2">
      <!-- 15 -->
      <defs>
       <path d="M 10.796875 72.90625 
L 49.515625 72.90625 
L 49.515625 64.59375 
L 19.828125 64.59375 
L 19.828125 46.734375 
Q 21.96875 47.46875 24.109375 47.828125 
Q 26.265625 48.1875 28.421875 48.1875 
Q 40.625 48.1875 47.75 41.5 
Q 54.890625 34.8125 54.890625 23.390625 
Q 54.890625 11.625 47.5625 5.09375 
Q 40.234375 -1.421875 26.90625 -1.421875 
Q 22.3125 -1.421875 17.546875 -0.640625 
Q 12.796875 0.140625 7.71875 1.703125 
L 7.71875 11.625 
Q 12.109375 9.234375 16.796875 8.0625 
Q 21.484375 6.890625 26.703125 6.890625 
Q 35.15625 6.890625 40.078125 11.328125 
Q 45.015625 15.765625 45.015625 23.390625 
Q 45.015625 31 40.078125 35.4375 
Q 35.15625 39.890625 26.703125 39.890625 
Q 22.75 39.890625 18.8125 39.015625 
Q 14.890625 38.140625 10.796875 36.28125 
z
" id="DejaVuSans-35"/>
      </defs>
      <g transform="translate(257.162237 305.676875)scale(0.2 -0.2)">
       <use xlink:href="#DejaVuSans-31"/>
       <use x="63.623047" xlink:href="#DejaVuSans-35"/>
      </g>
     </g>
    </g>
    <g id="xtick_3">
     <g id="line2d_3">
      <g>
       <use style="stroke:#000000;stroke-width:0.8;" x="369.569769" xlink:href="#m3dd364e447" y="283.48"/>
      </g>
     </g>
     <g id="text_3">
      <!-- 20 -->
      <defs>
       <path d="M 19.1875 8.296875 
L 53.609375 8.296875 
L 53.609375 0 
L 7.328125 0 
L 7.328125 8.296875 
Q 12.9375 14.109375 22.625 23.890625 
Q 32.328125 33.6875 34.8125 36.53125 
Q 39.546875 41.84375 41.421875 45.53125 
Q 43.3125 49.21875 43.3125 52.78125 
Q 43.3125 58.59375 39.234375 62.25 
Q 35.15625 65.921875 28.609375 65.921875 
Q 23.96875 65.921875 18.8125 64.3125 
Q 13.671875 62.703125 7.8125 59.421875 
L 7.8125 69.390625 
Q 13.765625 71.78125 18.9375 73 
Q 24.125 74.21875 28.421875 74.21875 
Q 39.75 74.21875 46.484375 68.546875 
Q 53.21875 62.890625 53.21875 53.421875 
Q 53.21875 48.921875 51.53125 44.890625 
Q 49.859375 40.875 45.40625 35.40625 
Q 44.1875 33.984375 37.640625 27.21875 
Q 31.109375 20.453125 19.1875 8.296875 
z
" id="DejaVuSans-32"/>
      </defs>
      <g transform="translate(356.844769 305.676875)scale(0.2 -0.2)">
       <use xlink:href="#DejaVuSans-32"/>
       <use x="63.623047" xlink:href="#DejaVuSans-30"/>
      </g>
     </g>
    </g>
    <g id="text_4">
     <!-- Domain diameter (nm) -->
     <defs>
      <path d="M 19.671875 64.796875 
L 19.671875 8.109375 
L 31.59375 8.109375 
Q 46.6875 8.109375 53.6875 14.9375 
Q 60.6875 21.78125 60.6875 36.53125 
Q 60.6875 51.171875 53.6875 57.984375 
Q 46.6875 64.796875 31.59375 64.796875 
z
M 9.8125 72.90625 
L 30.078125 72.90625 
Q 51.265625 72.90625 61.171875 64.09375 
Q 71.09375 55.28125 71.09375 36.53125 
Q 71.09375 17.671875 61.125 8.828125 
Q 51.171875 0 30.078125 0 
L 9.8125 0 
z
" id="DejaVuSans-44"/>
      <path d="M 30.609375 48.390625 
Q 23.390625 48.390625 19.1875 42.75 
Q 14.984375 37.109375 14.984375 27.296875 
Q 14.984375 17.484375 19.15625 11.84375 
Q 23.34375 6.203125 30.609375 6.203125 
Q 37.796875 6.203125 41.984375 11.859375 
Q 46.1875 17.53125 46.1875 27.296875 
Q 46.1875 37.015625 41.984375 42.703125 
Q 37.796875 48.390625 30.609375 48.390625 
z
M 30.609375 56 
Q 42.328125 56 49.015625 48.375 
Q 55.71875 40.765625 55.71875 27.296875 
Q 55.71875 13.875 49.015625 6.21875 
Q 42.328125 -1.421875 30.609375 -1.421875 
Q 18.84375 -1.421875 12.171875 6.21875 
Q 5.515625 13.875 5.515625 27.296875 
Q 5.515625 40.765625 12.171875 48.375 
Q 18.84375 56 30.609375 56 
z
" id="DejaVuSans-6f"/>
      <path d="M 52 44.1875 
Q 55.375 50.25 60.0625 53.125 
Q 64.75 56 71.09375 56 
Q 79.640625 56 84.28125 50.015625 
Q 88.921875 44.046875 88.921875 33.015625 
L 88.921875 0 
L 79.890625 0 
L 79.890625 32.71875 
Q 79.890625 40.578125 77.09375 44.375 
Q 74.3125 48.1875 68.609375 48.1875 
Q 61.625 48.1875 57.5625 43.546875 
Q 53.515625 38.921875 53.515625 30.90625 
L 53.515625 0 
L 44.484375 0 
L 44.484375 32.71875 
Q 44.484375 40.625 41.703125 44.40625 
Q 38.921875 48.1875 33.109375 48.1875 
Q 26.21875 48.1875 22.15625 43.53125 
Q 18.109375 38.875 18.109375 30.90625 
L 18.109375 0 
L 9.078125 0 
L 9.078125 54.6875 
L 18.109375 54.6875 
L 18.109375 46.1875 
Q 21.1875 51.21875 25.484375 53.609375 
Q 29.78125 56 35.6875 56 
Q 41.65625 56 45.828125 52.96875 
Q 50 49.953125 52 44.1875 
z
" id="DejaVuSans-6d"/>
      <path d="M 34.28125 27.484375 
Q 23.390625 27.484375 19.1875 25 
Q 14.984375 22.515625 14.984375 16.5 
Q 14.984375 11.71875 18.140625 8.90625 
Q 21.296875 6.109375 26.703125 6.109375 
Q 34.1875 6.109375 38.703125 11.40625 
Q 43.21875 16.703125 43.21875 25.484375 
L 43.21875 27.484375 
z
M 52.203125 31.203125 
L 52.203125 0 
L 43.21875 0 
L 43.21875 8.296875 
Q 40.140625 3.328125 35.546875 0.953125 
Q 30.953125 -1.421875 24.3125 -1.421875 
Q 15.921875 -1.421875 10.953125 3.296875 
Q 6 8.015625 6 15.921875 
Q 6 25.140625 12.171875 29.828125 
Q 18.359375 34.515625 30.609375 34.515625 
L 43.21875 34.515625 
L 43.21875 35.40625 
Q 43.21875 41.609375 39.140625 45 
Q 35.0625 48.390625 27.6875 48.390625 
Q 23 48.390625 18.546875 47.265625 
Q 14.109375 46.140625 10.015625 43.890625 
L 10.015625 52.203125 
Q 14.9375 54.109375 19.578125 55.046875 
Q 24.21875 56 28.609375 56 
Q 40.484375 56 46.34375 49.84375 
Q 52.203125 43.703125 52.203125 31.203125 
z
" id="DejaVuSans-61"/>
      <path d="M 9.421875 54.6875 
L 18.40625 54.6875 
L 18.40625 0 
L 9.421875 0 
z
M 9.421875 75.984375 
L 18.40625 75.984375 
L 18.40625 64.59375 
L 9.421875 64.59375 
z
" id="DejaVuSans-69"/>
      <path d="M 54.890625 33.015625 
L 54.890625 0 
L 45.90625 0 
L 45.90625 32.71875 
Q 45.90625 40.484375 42.875 44.328125 
Q 39.84375 48.1875 33.796875 48.1875 
Q 26.515625 48.1875 22.3125 43.546875 
Q 18.109375 38.921875 18.109375 30.90625 
L 18.109375 0 
L 9.078125 0 
L 9.078125 54.6875 
L 18.109375 54.6875 
L 18.109375 46.1875 
Q 21.34375 51.125 25.703125 53.5625 
Q 30.078125 56 35.796875 56 
Q 45.21875 56 50.046875 50.171875 
Q 54.890625 44.34375 54.890625 33.015625 
z
" id="DejaVuSans-6e"/>
      <path id="DejaVuSans-20"/>
      <path d="M 45.40625 46.390625 
L 45.40625 75.984375 
L 54.390625 75.984375 
L 54.390625 0 
L 45.40625 0 
L 45.40625 8.203125 
Q 42.578125 3.328125 38.25 0.953125 
Q 33.9375 -1.421875 27.875 -1.421875 
Q 17.96875 -1.421875 11.734375 6.484375 
Q 5.515625 14.40625 5.515625 27.296875 
Q 5.515625 40.1875 11.734375 48.09375 
Q 17.96875 56 27.875 56 
Q 33.9375 56 38.25 53.625 
Q 42.578125 51.265625 45.40625 46.390625 
z
M 14.796875 27.296875 
Q 14.796875 17.390625 18.875 11.75 
Q 22.953125 6.109375 30.078125 6.109375 
Q 37.203125 6.109375 41.296875 11.75 
Q 45.40625 17.390625 45.40625 27.296875 
Q 45.40625 37.203125 41.296875 42.84375 
Q 37.203125 48.484375 30.078125 48.484375 
Q 22.953125 48.484375 18.875 42.84375 
Q 14.796875 37.203125 14.796875 27.296875 
z
" id="DejaVuSans-64"/>
      <path d="M 56.203125 29.59375 
L 56.203125 25.203125 
L 14.890625 25.203125 
Q 15.484375 15.921875 20.484375 11.0625 
Q 25.484375 6.203125 34.421875 6.203125 
Q 39.59375 6.203125 44.453125 7.46875 
Q 49.3125 8.734375 54.109375 11.28125 
L 54.109375 2.78125 
Q 49.265625 0.734375 44.1875 -0.34375 
Q 39.109375 -1.421875 33.890625 -1.421875 
Q 20.796875 -1.421875 13.15625 6.1875 
Q 5.515625 13.8125 5.515625 26.8125 
Q 5.515625 40.234375 12.765625 48.109375 
Q 20.015625 56 32.328125 56 
Q 43.359375 56 49.78125 48.890625 
Q 56.203125 41.796875 56.203125 29.59375 
z
M 47.21875 32.234375 
Q 47.125 39.59375 43.09375 43.984375 
Q 39.0625 48.390625 32.421875 48.390625 
Q 24.90625 48.390625 20.390625 44.140625 
Q 15.875 39.890625 15.1875 32.171875 
z
" id="DejaVuSans-65"/>
      <path d="M 18.3125 70.21875 
L 18.3125 54.6875 
L 36.8125 54.6875 
L 36.8125 47.703125 
L 18.3125 47.703125 
L 18.3125 18.015625 
Q 18.3125 11.328125 20.140625 9.421875 
Q 21.96875 7.515625 27.59375 7.515625 
L 36.8125 7.515625 
L 36.8125 0 
L 27.59375 0 
Q 17.1875 0 13.234375 3.875 
Q 9.28125 7.765625 9.28125 18.015625 
L 9.28125 47.703125 
L 2.6875 47.703125 
L 2.6875 54.6875 
L 9.28125 54.6875 
L 9.28125 70.21875 
z
" id="DejaVuSans-74"/>
      <path d="M 41.109375 46.296875 
Q 39.59375 47.171875 37.8125 47.578125 
Q 36.03125 48 33.890625 48 
Q 26.265625 48 22.1875 43.046875 
Q 18.109375 38.09375 18.109375 28.8125 
L 18.109375 0 
L 9.078125 0 
L 9.078125 54.6875 
L 18.109375 54.6875 
L 18.109375 46.1875 
Q 20.953125 51.171875 25.484375 53.578125 
Q 30.03125 56 36.53125 56 
Q 37.453125 56 38.578125 55.875 
Q 39.703125 55.765625 41.0625 55.515625 
z
" id="DejaVuSans-72"/>
      <path d="M 31 75.875 
Q 24.46875 64.65625 21.28125 53.65625 
Q 18.109375 42.671875 18.109375 31.390625 
Q 18.109375 20.125 21.3125 9.0625 
Q 24.515625 -2 31 -13.1875 
L 23.1875 -13.1875 
Q 15.875 -1.703125 12.234375 9.375 
Q 8.59375 20.453125 8.59375 31.390625 
Q 8.59375 42.28125 12.203125 53.3125 
Q 15.828125 64.359375 23.1875 75.875 
z
" id="DejaVuSans-28"/>
      <path d="M 8.015625 75.875 
L 15.828125 75.875 
Q 23.140625 64.359375 26.78125 53.3125 
Q 30.421875 42.28125 30.421875 31.390625 
Q 30.421875 20.453125 26.78125 9.375 
Q 23.140625 -1.703125 15.828125 -13.1875 
L 8.015625 -13.1875 
Q 14.5 -2 17.703125 9.0625 
Q 20.90625 20.125 20.90625 31.390625 
Q 20.90625 42.671875 17.703125 53.65625 
Q 14.5 64.65625 8.015625 75.875 
z
" id="DejaVuSans-29"/>
     </defs>
     <g transform="translate(129.379063 329.033125)scale(0.2 -0.2)">
      <use xlink:href="#DejaVuSans-44"/>
      <use x="77.001953" xlink:href="#DejaVuSans-6f"/>
      <use x="138.183594" xlink:href="#DejaVuSans-6d"/>
      <use x="235.595703" xlink:href="#DejaVuSans-61"/>
      <use x="296.875" xlink:href="#DejaVuSans-69"/>
      <use x="324.658203" xlink:href="#DejaVuSans-6e"/>
      <use x="388.037109" xlink:href="#DejaVuSans-20"/>
      <use x="419.824219" xlink:href="#DejaVuSans-64"/>
      <use x="483.300781" xlink:href="#DejaVuSans-69"/>
      <use x="511.083984" xlink:href="#DejaVuSans-61"/>
      <use x="572.363281" xlink:href="#DejaVuSans-6d"/>
      <use x="669.775391" xlink:href="#DejaVuSans-65"/>
      <use x="731.298828" xlink:href="#DejaVuSans-74"/>
      <use x="770.507812" xlink:href="#DejaVuSans-65"/>
      <use x="832.03125" xlink:href="#DejaVuSans-72"/>
      <use x="873.144531" xlink:href="#DejaVuSans-20"/>
      <use x="904.931641" xlink:href="#DejaVuSans-28"/>
      <use x="943.945312" xlink:href="#DejaVuSans-6e"/>
      <use x="1007.324219" xlink:href="#DejaVuSans-6d"/>
      <use x="1104.736328" xlink:href="#DejaVuSans-29"/>
     </g>
    </g>
   </g>
   <g id="matplotlib.axis_2">
    <g id="ytick_1">
     <g id="line2d_4">
      <defs>
       <path d="M 0 0 
L -3.5 0 
" id="md87daba36a" style="stroke:#000000;stroke-width:0.8;"/>
      </defs>
      <g>
       <use style="stroke:#000000;stroke-width:0.8;" x="73.91" xlink:href="#md87daba36a" y="283.48"/>
      </g>
     </g>
     <g id="text_5">
      <!-- 0.0 -->
      <defs>
       <path d="M 10.6875 12.40625 
L 21 12.40625 
L 21 0 
L 10.6875 0 
z
" id="DejaVuSans-2e"/>
      </defs>
      <g transform="translate(35.10375 291.078438)scale(0.2 -0.2)">
       <use xlink:href="#DejaVuSans-30"/>
       <use x="63.623047" xlink:href="#DejaVuSans-2e"/>
       <use x="95.410156" xlink:href="#DejaVuSans-30"/>
      </g>
     </g>
    </g>
    <g id="ytick_2">
     <g id="line2d_5">
      <g>
       <use style="stroke:#000000;stroke-width:0.8;" x="73.91" xlink:href="#md87daba36a" y="216.355721"/>
      </g>
     </g>
     <g id="text_6">
      <!-- 0.1 -->
      <g transform="translate(35.10375 223.954159)scale(0.2 -0.2)">
       <use xlink:href="#DejaVuSans-30"/>
       <use x="63.623047" xlink:href="#DejaVuSans-2e"/>
       <use x="95.410156" xlink:href="#DejaVuSans-31"/>
      </g>
     </g>
    </g>
    <g id="ytick_3">
     <g id="line2d_6">
      <g>
       <use style="stroke:#000000;stroke-width:0.8;" x="73.91" xlink:href="#md87daba36a" y="149.231443"/>
      </g>
     </g>
     <g id="text_7">
      <!-- 0.2 -->
      <g transform="translate(35.10375 156.82988)scale(0.2 -0.2)">
       <use xlink:href="#DejaVuSans-30"/>
       <use x="63.623047" xlink:href="#DejaVuSans-2e"/>
       <use x="95.410156" xlink:href="#DejaVuSans-32"/>
      </g>
     </g>
    </g>
    <g id="ytick_4">
     <g id="line2d_7">
      <g>
       <use style="stroke:#000000;stroke-width:0.8;" x="73.91" xlink:href="#md87daba36a" y="82.107164"/>
      </g>
     </g>
     <g id="text_8">
      <!-- 0.3 -->
      <defs>
       <path d="M 40.578125 39.3125 
Q 47.65625 37.796875 51.625 33 
Q 55.609375 28.21875 55.609375 21.1875 
Q 55.609375 10.40625 48.1875 4.484375 
Q 40.765625 -1.421875 27.09375 -1.421875 
Q 22.515625 -1.421875 17.65625 -0.515625 
Q 12.796875 0.390625 7.625 2.203125 
L 7.625 11.71875 
Q 11.71875 9.328125 16.59375 8.109375 
Q 21.484375 6.890625 26.8125 6.890625 
Q 36.078125 6.890625 40.9375 10.546875 
Q 45.796875 14.203125 45.796875 21.1875 
Q 45.796875 27.640625 41.28125 31.265625 
Q 36.765625 34.90625 28.71875 34.90625 
L 20.21875 34.90625 
L 20.21875 43.015625 
L 29.109375 43.015625 
Q 36.375 43.015625 40.234375 45.921875 
Q 44.09375 48.828125 44.09375 54.296875 
Q 44.09375 59.90625 40.109375 62.90625 
Q 36.140625 65.921875 28.71875 65.921875 
Q 24.65625 65.921875 20.015625 65.03125 
Q 15.375 64.15625 9.8125 62.3125 
L 9.8125 71.09375 
Q 15.4375 72.65625 20.34375 73.4375 
Q 25.25 74.21875 29.59375 74.21875 
Q 40.828125 74.21875 47.359375 69.109375 
Q 53.90625 64.015625 53.90625 55.328125 
Q 53.90625 49.265625 50.4375 45.09375 
Q 46.96875 40.921875 40.578125 39.3125 
z
" id="DejaVuSans-33"/>
      </defs>
      <g transform="translate(35.10375 89.705602)scale(0.2 -0.2)">
       <use xlink:href="#DejaVuSans-30"/>
       <use x="63.623047" xlink:href="#DejaVuSans-2e"/>
       <use x="95.410156" xlink:href="#DejaVuSans-33"/>
      </g>
     </g>
    </g>
    <g id="text_9">
     <!-- Probability Density -->
     <defs>
      <path d="M 19.671875 64.796875 
L 19.671875 37.40625 
L 32.078125 37.40625 
Q 38.96875 37.40625 42.71875 40.96875 
Q 46.484375 44.53125 46.484375 51.125 
Q 46.484375 57.671875 42.71875 61.234375 
Q 38.96875 64.796875 32.078125 64.796875 
z
M 9.8125 72.90625 
L 32.078125 72.90625 
Q 44.34375 72.90625 50.609375 67.359375 
Q 56.890625 61.8125 56.890625 51.125 
Q 56.890625 40.328125 50.609375 34.8125 
Q 44.34375 29.296875 32.078125 29.296875 
L 19.671875 29.296875 
L 19.671875 0 
L 9.8125 0 
z
" id="DejaVuSans-50"/>
      <path d="M 48.6875 27.296875 
Q 48.6875 37.203125 44.609375 42.84375 
Q 40.53125 48.484375 33.40625 48.484375 
Q 26.265625 48.484375 22.1875 42.84375 
Q 18.109375 37.203125 18.109375 27.296875 
Q 18.109375 17.390625 22.1875 11.75 
Q 26.265625 6.109375 33.40625 6.109375 
Q 40.53125 6.109375 44.609375 11.75 
Q 48.6875 17.390625 48.6875 27.296875 
z
M 18.109375 46.390625 
Q 20.953125 51.265625 25.265625 53.625 
Q 29.59375 56 35.59375 56 
Q 45.5625 56 51.78125 48.09375 
Q 58.015625 40.1875 58.015625 27.296875 
Q 58.015625 14.40625 51.78125 6.484375 
Q 45.5625 -1.421875 35.59375 -1.421875 
Q 29.59375 -1.421875 25.265625 0.953125 
Q 20.953125 3.328125 18.109375 8.203125 
L 18.109375 0 
L 9.078125 0 
L 9.078125 75.984375 
L 18.109375 75.984375 
z
" id="DejaVuSans-62"/>
      <path d="M 9.421875 75.984375 
L 18.40625 75.984375 
L 18.40625 0 
L 9.421875 0 
z
" id="DejaVuSans-6c"/>
      <path d="M 32.171875 -5.078125 
Q 28.375 -14.84375 24.75 -17.8125 
Q 21.140625 -20.796875 15.09375 -20.796875 
L 7.90625 -20.796875 
L 7.90625 -13.28125 
L 13.1875 -13.28125 
Q 16.890625 -13.28125 18.9375 -11.515625 
Q 21 -9.765625 23.484375 -3.21875 
L 25.09375 0.875 
L 2.984375 54.6875 
L 12.5 54.6875 
L 29.59375 11.921875 
L 46.6875 54.6875 
L 56.203125 54.6875 
z
" id="DejaVuSans-79"/>
      <path d="M 44.28125 53.078125 
L 44.28125 44.578125 
Q 40.484375 46.53125 36.375 47.5 
Q 32.28125 48.484375 27.875 48.484375 
Q 21.1875 48.484375 17.84375 46.4375 
Q 14.5 44.390625 14.5 40.28125 
Q 14.5 37.15625 16.890625 35.375 
Q 19.28125 33.59375 26.515625 31.984375 
L 29.59375 31.296875 
Q 39.15625 29.25 43.1875 25.515625 
Q 47.21875 21.78125 47.21875 15.09375 
Q 47.21875 7.46875 41.1875 3.015625 
Q 35.15625 -1.421875 24.609375 -1.421875 
Q 20.21875 -1.421875 15.453125 -0.5625 
Q 10.6875 0.296875 5.421875 2 
L 5.421875 11.28125 
Q 10.40625 8.6875 15.234375 7.390625 
Q 20.0625 6.109375 24.8125 6.109375 
Q 31.15625 6.109375 34.5625 8.28125 
Q 37.984375 10.453125 37.984375 14.40625 
Q 37.984375 18.0625 35.515625 20.015625 
Q 33.0625 21.96875 24.703125 23.78125 
L 21.578125 24.515625 
Q 13.234375 26.265625 9.515625 29.90625 
Q 5.8125 33.546875 5.8125 39.890625 
Q 5.8125 47.609375 11.28125 51.796875 
Q 16.75 56 26.8125 56 
Q 31.78125 56 36.171875 55.265625 
Q 40.578125 54.546875 44.28125 53.078125 
z
" id="DejaVuSans-73"/>
     </defs>
     <g transform="translate(26.944375 264.172438)rotate(-90)scale(0.2 -0.2)">
      <use xlink:href="#DejaVuSans-50"/>
      <use x="60.287109" xlink:href="#DejaVuSans-72"/>
      <use x="101.369141" xlink:href="#DejaVuSans-6f"/>
      <use x="162.550781" xlink:href="#DejaVuSans-62"/>
      <use x="226.027344" xlink:href="#DejaVuSans-61"/>
      <use x="287.306641" xlink:href="#DejaVuSans-62"/>
      <use x="350.783203" xlink:href="#DejaVuSans-69"/>
      <use x="378.566406" xlink:href="#DejaVuSans-6c"/>
      <use x="406.349609" xlink:href="#DejaVuSans-69"/>
      <use x="434.132812" xlink:href="#DejaVuSans-74"/>
      <use x="473.341797" xlink:href="#DejaVuSans-79"/>
      <use x="532.521484" xlink:href="#DejaVuSans-20"/>
      <use x="564.308594" xlink:href="#DejaVuSans-44"/>
      <use x="641.310547" xlink:href="#DejaVuSans-65"/>
      <use x="702.833984" xlink:href="#DejaVuSans-6e"/>
      <use x="766.212891" xlink:href="#DejaVuSans-73"/>
      <use x="818.3125" xlink:href="#DejaVuSans-69"/>
      <use x="846.095703" xlink:href="#DejaVuSans-74"/>
      <use x="885.304688" xlink:href="#DejaVuSans-79"/>
     </g>
    </g>
   </g>
   <g id="line2d_8">
    <path clip-path="url(#p85f51e6971)" d="M 238.632359 283.48 
L 238.632359 55.968 
" style="fill:none;stroke:#000000;stroke-dasharray:7.4,3.2;stroke-dashoffset:0;stroke-width:2;"/>
   </g>
   <g id="patch_103">
    <path d="M 73.91 283.48 
L 73.91 55.968 
" style="fill:none;stroke:#000000;stroke-linecap:square;stroke-linejoin:miter;stroke-width:0.8;"/>
   </g>
   <g id="patch_104">
    <path d="M 413.595 283.48 
L 413.595 55.968 
" style="fill:none;stroke:#000000;stroke-linecap:square;stroke-linejoin:miter;stroke-width:0.8;"/>
   </g>
   <g id="patch_105">
    <path d="M 73.91 283.48 
L 413.595 283.48 
" style="fill:none;stroke:#000000;stroke-linecap:square;stroke-linejoin:miter;stroke-width:0.8;"/>
   </g>
   <g id="patch_106">
    <path d="M 73.91 55.968 
L 413.595 55.968 
" style="fill:none;stroke:#000000;stroke-linecap:square;stroke-linejoin:miter;stroke-width:0.8;"/>
   </g>
   <g id="text_10">
    <!-- Domain size distribution -->
    <defs>
     <path d="M 5.515625 54.6875 
L 48.1875 54.6875 
L 48.1875 46.484375 
L 14.40625 7.171875 
L 48.1875 7.171875 
L 48.1875 0 
L 4.296875 0 
L 4.296875 8.203125 
L 38.09375 47.515625 
L 5.515625 47.515625 
z
" id="DejaVuSans-7a"/>
     <path d="M 8.5 21.578125 
L 8.5 54.6875 
L 17.484375 54.6875 
L 17.484375 21.921875 
Q 17.484375 14.15625 20.5 10.265625 
Q 23.53125 6.390625 29.59375 6.390625 
Q 36.859375 6.390625 41.078125 11.03125 
Q 45.3125 15.671875 45.3125 23.6875 
L 45.3125 54.6875 
L 54.296875 54.6875 
L 54.296875 0 
L 45.3125 0 
L 45.3125 8.40625 
Q 42.046875 3.421875 37.71875 1 
Q 33.40625 -1.421875 27.6875 -1.421875 
Q 18.265625 -1.421875 13.375 4.4375 
Q 8.5 10.296875 8.5 21.578125 
z
M 31.109375 56 
z
" id="DejaVuSans-75"/>
    </defs>
    <g transform="translate(122.218125 27.572375)scale(0.2 -0.2)">
     <use xlink:href="#DejaVuSans-44"/>
     <use x="77.001953" xlink:href="#DejaVuSans-6f"/>
     <use x="138.183594" xlink:href="#DejaVuSans-6d"/>
     <use x="235.595703" xlink:href="#DejaVuSans-61"/>
     <use x="296.875" xlink:href="#DejaVuSans-69"/>
     <use x="324.658203" xlink:href="#DejaVuSans-6e"/>
     <use x="388.037109" xlink:href="#DejaVuSans-20"/>
     <use x="419.824219" xlink:href="#DejaVuSans-73"/>
     <use x="471.923828" xlink:href="#DejaVuSans-69"/>
     <use x="499.707031" xlink:href="#DejaVuSans-7a"/>
     <use x="552.197266" xlink:href="#DejaVuSans-65"/>
     <use x="613.720703" xlink:href="#DejaVuSans-20"/>
     <use x="645.507812" xlink:href="#DejaVuSans-64"/>
     <use x="708.984375" xlink:href="#DejaVuSans-69"/>
     <use x="736.767578" xlink:href="#DejaVuSans-73"/>
     <use x="788.867188" xlink:href="#DejaVuSans-74"/>
     <use x="828.076172" xlink:href="#DejaVuSans-72"/>
     <use x="869.189453" xlink:href="#DejaVuSans-69"/>
     <use x="896.972656" xlink:href="#DejaVuSans-62"/>
     <use x="960.449219" xlink:href="#DejaVuSans-75"/>
     <use x="1023.828125" xlink:href="#DejaVuSans-74"/>
     <use x="1063.037109" xlink:href="#DejaVuSans-69"/>
     <use x="1090.820312" xlink:href="#DejaVuSans-6f"/>
     <use x="1152.001953" xlink:href="#DejaVuSans-6e"/>
    </g>
    <!-- (Mean: 13.43 nm, Std. Deviation: 3.45 nm) -->
    <defs>
     <path d="M 9.8125 72.90625 
L 24.515625 72.90625 
L 43.109375 23.296875 
L 61.8125 72.90625 
L 76.515625 72.90625 
L 76.515625 0 
L 66.890625 0 
L 66.890625 64.015625 
L 48.09375 14.015625 
L 38.1875 14.015625 
L 19.390625 64.015625 
L 19.390625 0 
L 9.8125 0 
z
" id="DejaVuSans-4d"/>
     <path d="M 11.71875 12.40625 
L 22.015625 12.40625 
L 22.015625 0 
L 11.71875 0 
z
M 11.71875 51.703125 
L 22.015625 51.703125 
L 22.015625 39.3125 
L 11.71875 39.3125 
z
" id="DejaVuSans-3a"/>
     <path d="M 37.796875 64.3125 
L 12.890625 25.390625 
L 37.796875 25.390625 
z
M 35.203125 72.90625 
L 47.609375 72.90625 
L 47.609375 25.390625 
L 58.015625 25.390625 
L 58.015625 17.1875 
L 47.609375 17.1875 
L 47.609375 0 
L 37.796875 0 
L 37.796875 17.1875 
L 4.890625 17.1875 
L 4.890625 26.703125 
z
" id="DejaVuSans-34"/>
     <path d="M 11.71875 12.40625 
L 22.015625 12.40625 
L 22.015625 4 
L 14.015625 -11.625 
L 7.71875 -11.625 
L 11.71875 4 
z
" id="DejaVuSans-2c"/>
     <path d="M 53.515625 70.515625 
L 53.515625 60.890625 
Q 47.90625 63.578125 42.921875 64.890625 
Q 37.9375 66.21875 33.296875 66.21875 
Q 25.25 66.21875 20.875 63.09375 
Q 16.5 59.96875 16.5 54.203125 
Q 16.5 49.359375 19.40625 46.890625 
Q 22.3125 44.4375 30.421875 42.921875 
L 36.375 41.703125 
Q 47.40625 39.59375 52.65625 34.296875 
Q 57.90625 29 57.90625 20.125 
Q 57.90625 9.515625 50.796875 4.046875 
Q 43.703125 -1.421875 29.984375 -1.421875 
Q 24.8125 -1.421875 18.96875 -0.25 
Q 13.140625 0.921875 6.890625 3.21875 
L 6.890625 13.375 
Q 12.890625 10.015625 18.65625 8.296875 
Q 24.421875 6.59375 29.984375 6.59375 
Q 38.421875 6.59375 43.015625 9.90625 
Q 47.609375 13.234375 47.609375 19.390625 
Q 47.609375 24.75 44.3125 27.78125 
Q 41.015625 30.8125 33.5 32.328125 
L 27.484375 33.5 
Q 16.453125 35.6875 11.515625 40.375 
Q 6.59375 45.0625 6.59375 53.421875 
Q 6.59375 63.09375 13.40625 68.65625 
Q 20.21875 74.21875 32.171875 74.21875 
Q 37.3125 74.21875 42.625 73.28125 
Q 47.953125 72.359375 53.515625 70.515625 
z
" id="DejaVuSans-53"/>
     <path d="M 2.984375 54.6875 
L 12.5 54.6875 
L 29.59375 8.796875 
L 46.6875 54.6875 
L 56.203125 54.6875 
L 35.6875 0 
L 23.484375 0 
z
" id="DejaVuSans-76"/>
    </defs>
    <g transform="translate(29.04 49.968)scale(0.2 -0.2)">
     <use xlink:href="#DejaVuSans-28"/>
     <use x="39.013672" xlink:href="#DejaVuSans-4d"/>
     <use x="125.292969" xlink:href="#DejaVuSans-65"/>
     <use x="186.816406" xlink:href="#DejaVuSans-61"/>
     <use x="248.095703" xlink:href="#DejaVuSans-6e"/>
     <use x="311.474609" xlink:href="#DejaVuSans-3a"/>
     <use x="345.166016" xlink:href="#DejaVuSans-20"/>
     <use x="376.953125" xlink:href="#DejaVuSans-31"/>
     <use x="440.576172" xlink:href="#DejaVuSans-33"/>
     <use x="504.199219" xlink:href="#DejaVuSans-2e"/>
     <use x="535.986328" xlink:href="#DejaVuSans-34"/>
     <use x="599.609375" xlink:href="#DejaVuSans-33"/>
     <use x="663.232422" xlink:href="#DejaVuSans-20"/>
     <use x="695.019531" xlink:href="#DejaVuSans-6e"/>
     <use x="758.398438" xlink:href="#DejaVuSans-6d"/>
     <use x="855.810547" xlink:href="#DejaVuSans-2c"/>
     <use x="887.597656" xlink:href="#DejaVuSans-20"/>
     <use x="919.384766" xlink:href="#DejaVuSans-53"/>
     <use x="982.861328" xlink:href="#DejaVuSans-74"/>
     <use x="1022.070312" xlink:href="#DejaVuSans-64"/>
     <use x="1085.546875" xlink:href="#DejaVuSans-2e"/>
     <use x="1117.333984" xlink:href="#DejaVuSans-20"/>
     <use x="1149.121094" xlink:href="#DejaVuSans-44"/>
     <use x="1226.123047" xlink:href="#DejaVuSans-65"/>
     <use x="1287.646484" xlink:href="#DejaVuSans-76"/>
     <use x="1346.826172" xlink:href="#DejaVuSans-69"/>
     <use x="1374.609375" xlink:href="#DejaVuSans-61"/>
     <use x="1435.888672" xlink:href="#DejaVuSans-74"/>
     <use x="1475.097656" xlink:href="#DejaVuSans-69"/>
     <use x="1502.880859" xlink:href="#DejaVuSans-6f"/>
     <use x="1564.0625" xlink:href="#DejaVuSans-6e"/>
     <use x="1627.441406" xlink:href="#DejaVuSans-3a"/>
     <use x="1661.132812" xlink:href="#DejaVuSans-20"/>
     <use x="1692.919922" xlink:href="#DejaVuSans-33"/>
     <use x="1756.542969" xlink:href="#DejaVuSans-2e"/>
     <use x="1788.330078" xlink:href="#DejaVuSans-34"/>
     <use x="1851.953125" xlink:href="#DejaVuSans-35"/>
     <use x="1915.576172" xlink:href="#DejaVuSans-20"/>
     <use x="1947.363281" xlink:href="#DejaVuSans-6e"/>
     <use x="2010.742188" xlink:href="#DejaVuSans-6d"/>
     <use x="2108.154297" xlink:href="#DejaVuSans-29"/>
    </g>
   </g>
  </g>
 </g>
 <defs>
  <clipPath id="p85f51e6971">
   <rect height="227.512" width="339.685" x="73.91" y="55.968"/>
  </clipPath>
 </defs>
</svg>
